<?xml version="1.0" encoding="UTF-8" standalone="no"?>
<svg
   id="svg"
   version="1.1"
   width="336.59311"
   height="333.15775"
   viewBox="0 0 336.59311 333.15775"
   xmlns="http://www.w3.org/2000/svg"
   xmlns:svg="http://www.w3.org/2000/svg">
  <defs
     id="defs1" />
  <g
     id="svgg"
     transform="translate(-31.624441,-33.648029)"
     style="display:inline">
    <path
       id="path1"
       d="m 125.412,80.526 c -37.634,3.931 -64.563,38.57 -61.38,78.954 0.663,8.406 2.975,20.59 4.031,21.243 0.23,0.142 9.751,0.275 21.158,0.295 25.641,0.045 22.765,-0.952 27.996,9.711 1.767,3.603 3.261,6.502 3.319,6.443 0.14,-0.14 8.818,-28.949 13.621,-45.219 4.91,-16.63 5.074,-16.962 8.892,-17.99 6.156,-1.658 7.214,-0.057 12.804,19.357 8.344,28.981 15.658,54.301 15.937,55.174 0.215,0.673 1.491,-2.274 5.497,-12.695 5.851,-15.226 6.366,-16.286 8.69,-17.897 l 1.651,-1.144 h 18.462 c 20.545,0 19.3,-0.156 21.425,2.689 1.129,1.513 1.129,5.218 0,6.731 -2.088,2.796 -1.254,2.668 -18.797,2.885 l -15.835,0.195 -1.451,3.711 c -1.687,4.316 -3.798,9.869 -9.796,25.762 -5.603,14.848 -5.88,15.253 -10.44,15.253 -4.426,0 -5.258,-1.331 -9.033,-14.453 -5.818,-20.225 -15.73,-54.49 -16.543,-57.192 l -0.812,-2.699 -8.141,27.114 c -9.914,33.023 -9.037,30.877 -13.084,32.01 -4.647,1.301 -5.81,0.049 -12.841,-13.819 l -5.859,-11.555 -15.951,-0.113 c -8.773,-0.062 -16.023,-0.041 -16.11,0.047 -0.526,0.527 7.989,14.978 13.601,23.082 16.672,24.076 36.525,43.697 92.093,91.014 21.353,18.183 21.143,18.046 24.137,15.762 1.548,-1.181 37.679,-31.678 40.483,-34.171 0.205,-0.182 -0.387,-0.644 -1.367,-1.067 -7.728,-3.328 -9.705,-4.258 -12.714,-5.983 -16.502,-9.462 -23.654,-21.43 -23.069,-38.602 0.453,-13.328 3.412,-20.938 14.199,-36.523 12.761,-18.436 15.716,-23.518 17.943,-30.859 l 1.067,-3.516 0.269,-18.359 c 0.326,-22.206 0.749,-25.198 4.667,-33.008 10.948,-21.825 42.534,-25.984 58.537,-7.707 8.585,9.804 11.055,18.001 11.771,39.056 0.56,16.491 3.191,25.113 10.469,34.317 2.945,3.726 2.571,3.948 4.785,-2.83 8.352,-25.57 6.938,-48.691 -4.187,-68.457 -19.542,-34.721 -64.052,-45.642 -96.738,-23.737 -9.338,6.257 -23.181,20.275 -27.881,28.233 -0.883,1.493 -0.691,1.628 -3.925,-2.757 -20.266,-27.477 -43.865,-39.577 -71.55,-36.686"
       stroke="none"
       fill="#ec492b"
       fill-rule="evenodd"
       style="display:inline" />
    <path
       id="path2"
       d="m 91.499,34.036 c -30.44,2.477 -54.272,24.982 -58.976,55.69 -0.807,5.269 -1.275,201.794 -0.51,214.216 2.082,33.806 21.686,56.164 54.315,61.947 4.484,0.795 209.788,1.301 220.899,0.545 33.152,-2.257 56.058,-23.668 60.418,-56.473 0.754,-5.676 0.768,-213.018 0.014,-218.555 C 363.133,58.157 340.222,36.457 307.031,33.985 300.581,33.504 97.438,33.553 91.499,34.036 m 49.825,46.457 c 21.105,2.311 40.889,15.626 56.999,38.363 l 1.597,2.253 1.812,-2.538 c 14.188,-19.883 32.491,-33.334 50.612,-37.196 5.659,-1.206 20.566,-1.005 26.953,0.364 44.832,9.605 66.477,53.734 50.322,102.597 l -1.988,6.015 -0.756,-0.937 c -9.585,-11.892 -12.157,-19.813 -12.8,-39.414 -0.647,-19.748 -3.387,-28.005 -12.492,-37.649 -15.409,-16.321 -44.651,-12.815 -56.273,6.748 -4.744,7.985 -5.587,13.054 -5.693,34.221 -0.128,25.797 -0.129,25.8 -18.906,52.93 -11.789,17.035 -14.599,24.502 -14.626,38.867 -0.037,19.478 10.226,32.146 34.047,42.025 1.769,0.734 3.219,1.436 3.222,1.559 0.005,0.211 -3.067,2.845 -26.346,22.581 -18.542,15.721 -16.452,14.812 -22.477,9.766 C 116.306,255.537 90.24,228.489 73.923,195.898 48.676,145.47 72.889,87.864 122.266,80.885 c 1.611,-0.227 3.369,-0.478 3.906,-0.557 2.209,-0.324 11.616,-0.222 15.152,0.165 m 147.21,53.307 c 7.059,3.454 8.838,17.475 3.085,24.312 l -1.069,1.269 -1.164,-0.979 c -0.641,-0.539 -1.591,-1.087 -2.111,-1.218 -1.135,-0.285 -1.121,-0.05 -0.136,-2.278 1.96,-4.431 1.785,-8.78 -0.456,-11.333 -3.892,-4.432 -8.755,-1.256 -8.752,5.716 0.001,1.895 -0.046,3.445 -0.103,3.445 -0.058,0 -1.141,-0.288 -2.407,-0.64 l -2.302,-0.64 -0.27,-3.046 c -1.028,-11.608 6.84,-18.935 15.685,-14.608 m -33.329,0.549 c 4.228,1.608 6.589,7.798 5.568,14.604 -0.276,1.843 -0.358,1.913 -2.799,2.402 l -1.205,0.241 0.172,-2.07 c 0.601,-7.248 -5.632,-10.207 -7.725,-3.667 -0.621,1.942 -0.262,5.578 0.784,7.943 0.882,1.993 0.76,2.306 -1.331,3.433 -2.703,1.455 -3.924,-1.699 -3.935,-10.165 -0.014,-10.406 3.936,-15.206 10.471,-12.721 m 17.692,21.73 c 1.9,0.55 4.864,1.622 6.587,2.381 1.723,0.759 4.53,1.891 6.238,2.516 8.262,3.022 6.847,5.755 -6.23,12.027 -14.179,6.801 -21.101,6.212 -31.821,-2.709 -4.412,-3.672 -3.068,-6.379 5.614,-11.308 7.491,-4.252 12.439,-4.986 19.612,-2.907 m 18.366,16.494 c 0.235,0.375 1.147,3.077 2.028,6.004 2.844,9.453 16.17,39.016 18.136,40.234 0.498,0.308 -1.67,3.413 -6.903,9.891 -11.602,14.36 -27.988,30.811 -50.536,50.734 l -4.799,4.241 -2.036,-0.871 c -21.612,-9.246 -30.042,-28.657 -22.703,-52.275 2.001,-6.441 4.166,-11.296 11.086,-24.867 6.648,-13.038 8.306,-17.039 9.955,-24.023 0.584,-2.471 1.134,-4.729 1.224,-5.017 0.123,-0.394 0.609,-0.263 1.958,0.527 12.391,7.262 25.009,6.006 39.022,-3.883 2.455,-1.733 2.87,-1.814 3.568,-0.695"
       stroke="none"
       fill="#0a1313"
       fill-rule="evenodd"
       style="display:inline" />
  </g>
  <path
     style="fill:#ffffff;stroke-width:0.33557"
     d="m 251.54939,98.995255 c -5.61665,-0.051 -9.51072,5.508335 -10.16411,10.625525 -0.4137,2.73372 -0.34472,5.64535 0.22874,8.2916 1.35365,0.0343 2.85415,1.19502 4.14678,0.79961 1.21141,-3.24698 0.17355,-7.72893 3.29344,-10.09137 3.18049,-1.97308 7.02522,1.178 7.47431,4.43648 0.80834,3.35242 -0.43899,6.61516 -1.49434,9.73679 0.36203,1.04397 1.98341,1.21605 2.71552,2.05082 1.46791,1.70203 2.53186,-0.92444 3.31623,-2.03247 2.7502,-4.45648 2.52602,-9.95529 1.50876,-14.89291 -1.04134,-3.64873 -3.44279,-7.14363 -7.18724,-8.368942 -1.20293,-0.560971 -2.53751,-0.582074 -3.83809,-0.555133 z"
     id="path9" />
  <path
     style="fill:#ffffff;stroke-width:0.33557"
     d="m 220.45997,100.17565 c -3.43946,-0.17211 -5.76069,2.95386 -6.48136,5.99439 -1.18568,4.85563 -0.77262,9.97974 -0.21891,14.89618 0.20051,1.53698 1.67878,3.88883 3.40552,2.45452 1.48648,-0.38081 2.00088,-1.99192 1.25773,-3.26329 -1.212,-3.50714 -1.94654,-8.26343 1.09388,-11.03451 2.18209,-1.72595 5.00704,0.63666 5.29113,2.91593 0.65233,1.85765 0.14404,4.0356 0.81861,5.7532 1.51247,-0.16743 3.58101,-0.71969 3.49007,-2.64065 0.31655,-4.61975 0.26578,-10.08046 -3.63819,-13.3055 -1.3528,-1.24109 -3.19108,-1.86368 -5.01848,-1.77027 z"
     id="path10" />
  <path
     style="fill:#ffffff;stroke-width:0.33557"
     d="m 234.07679,121.27661 c -6.88903,0.41572 -13.19608,4.05505 -18.45376,8.30865 -1.40305,1.07803 -2.84871,3.01476 -1.53235,4.73337 2.78945,3.70701 6.97689,6.18831 11.11577,8.14676 6.47129,2.80958 13.80563,0.84822 19.92843,-1.92756 4.68044,-2.21655 9.80423,-4.1321 13.46215,-7.92523 1.42344,-1.53435 -0.20336,-3.51671 -1.79976,-4.02226 -6.38566,-2.76886 -12.82751,-5.68953 -19.67741,-7.09548 -1.00558,-0.16046 -2.02458,-0.24112 -3.04307,-0.21825 z"
     id="path11" />
  <path
     style="fill:#ffffff;stroke-width:0.33557"
     d="m 258.5636,138.20784 c -4.55636,2.62124 -8.92013,5.79863 -13.917,7.61064 -7.52861,2.97438 -16.16294,3.06939 -23.55285,-0.37621 -1.9675,-0.81234 -3.82669,-1.90338 -5.83185,-2.60985 -1.14833,2.8299 -1.3819,6.14984 -2.4768,9.09383 -4.01924,11.49536 -10.21597,22.08786 -15.22269,33.17018 -3.65261,7.55749 -6.52254,15.69612 -7.13706,24.11666 -0.77298,8.81382 1.18418,17.9559 6.32578,25.24449 4.98228,7.17392 12.53291,12.41527 20.65593,15.37529 6.70933,-5.2442 12.84598,-11.22352 19.16357,-16.93844 10.65225,-10.31024 21.34516,-20.62449 31.17059,-31.73554 4.02889,-4.97724 8.50601,-9.69242 11.79165,-15.20978 0.51007,-1.43514 -1.37325,-2.70659 -1.82143,-4.10269 -6.21784,-12.02804 -11.58204,-24.51505 -16.13623,-37.26601 -0.9168,-2.04087 -1.02743,-4.73907 -2.70815,-6.31948 -0.0946,-0.0422 -0.20008,-0.0616 -0.30346,-0.0531 z"
     id="path12" />
  <path
     style="fill:#ffffff;stroke-width:0.33557"
     d="m 113.97533,99.927249 c -2.68712,0.08161 -5.77571,1.041251 -6.70286,3.869841 -6.03843,18.36428 -11.52951,36.91798 -17.076101,55.43951 -0.486611,1.34454 -0.627651,2.82824 -1.311486,4.09249 -2.841155,-4.52512 -4.405853,-9.84341 -7.760068,-14.03431 -2.621446,-2.21175 -6.429513,-1.43301 -9.600859,-1.78885 -11.642023,-0.20351 -23.287714,-0.31301 -34.931045,-0.3065 -0.529987,0.83718 0.580344,2.1048 0.682588,3.05188 1.214222,3.20189 2.300905,6.56358 3.971486,9.51235 10.668781,0 21.337563,0 32.006344,0 4.171436,7.73576 7.621923,15.90681 12.526218,23.22187 1.228601,2.05023 3.735218,3.08225 6.007497,2.16679 2.431567,-0.29669 3.998426,-2.30861 4.628956,-4.53569 5.7257,-16.5127 10.2065,-33.43411 15.47998,-50.09101 0.45104,-1.17756 0.81904,-3.15508 1.35315,-3.8694 3.33415,10.37492 6.12537,21.02161 9.25117,31.49908 3.79885,12.64074 7.03486,25.46736 11.39123,37.93118 0.71605,2.95392 3.75004,4.74163 6.68694,4.28055 2.94712,0.0524 4.41479,-2.8227 5.33068,-5.19095 5.48823,-12.91775 10.03979,-26.25113 15.30231,-39.23216 10.52541,-0.75622 21.15487,-0.18228 31.67143,-1.15614 4.84396,-1.31357 5.11405,-8.99067 0.65214,-10.99452 -3.41934,-1.11067 -7.16262,-0.46501 -10.70478,-0.7228 -8.91182,-0.052 -17.84091,-0.17607 -26.74214,-0.143 -2.74565,1.51898 -4.47996,4.15101 -5.5271,7.03622 -3.5713,8.10759 -6.29233,16.6085 -10.07299,24.5972 -0.53905,0.57801 -1.25627,-2.43299 -0.90316,-2.08487 -6.47138,-21.55393 -12.30912,-43.3001 -19.0617,-64.76736 -1.25168,-2.97538 -2.42772,-7.994806 -6.54783,-7.781401 z"
     id="path13" />
</svg>
